# xmcd
#
# Track frame offsets:
#	150
#	20227
#	32038
#	74908
#	93038
#	114263
#	149636
#	162980
#	223579
#	240241
#	267042
#	288354
#
# Disc length: 4256 seconds
#
# Revision: 0
# Processed by: cddbd v1.5.2PL0 Copyright (c) Steve Scherf et al.
# Submitted via: audiograbber 1.83.01
#
DISCID=ae109e0c
DTITLE=Savoy Brown - Greatest Hits Live In Concert
DYEAR=1981
DGENRE=
TTITLE0=Street Corner Talkin'
TTITLE1=I'm Tired
TTITLE2=Hellbound Train
TTITLE3=Train To Nowhere
TTITLE4=I Can't Get Next To You
TTITLE5=All I Can Do Is Cry
TTITLE6=Needle And Spoon 
TTITLE7=Tell Mama
TTITLE8=Run To Me
TTITLE9=Wang Dang Doodle
TTITLE10=Louisiana Blues
TTITLE11=The Boogie
EXTD=
EXTT0=
EXTT1=
EXTT2=
EXTT3=
EXTT4=
EXTT5=
EXTT6=
EXTT7=
EXTT8=
EXTT9=
EXTT10=
EXTT11=
PLAYORDER=
